<?xml version="1.0" standalone="no"?>
<!DOCTYPE svg PUBLIC "-//W3C//DTD SVG 20010904//EN"
 "http://www.w3.org/TR/2001/REC-SVG-20010904/DTD/svg10.dtd">
<svg version="1.0" xmlns="http://www.w3.org/2000/svg"
 width="418.000000pt" height="418.000000pt" viewBox="0 0 418.000000 418.000000"
 preserveAspectRatio="xMidYMid meet">
<metadata>
Created by potrace 1.11, written by Peter Selinger 2001-2013
</metadata>
<g transform="translate(0.000000,418.000000) scale(0.100000,-0.100000)"
fill="#000000" stroke="none">
<path d="M139 3659 c-113 -18 -158 -117 -106 -230 86 -187 151 -326 190 -409
24 -52 120 -257 212 -455 92 -198 170 -364 173 -370 4 -5 7 -12 7 -15 2 -7 23
-54 113 -245 44 -93 100 -214 126 -268 25 -55 46 -100 46 -102 0 -1 34 -73 75
-160 41 -86 75 -158 75 -160 0 -1 27 -61 61 -131 34 -71 74 -158 90 -194 60
-131 95 -206 134 -284 59 -118 62 -119 335 -118 184 0 224 3 254 17 37 18 69
60 80 106 8 37 -2 63 -154 389 -73 157 -148 319 -167 360 -20 41 -53 113 -75
159 -22 46 -52 111 -68 145 -39 86 -150 325 -200 431 -59 126 -108 230 -140
300 -30 65 -210 452 -282 605 -24 52 -78 167 -118 255 -41 88 -95 200 -120
250 -63 126 -66 126 -314 128 -106 1 -208 -1 -227 -4z"/>
<path d="M3609 3658 c-23 -4 -51 -15 -62 -25 -17 -16 -84 -147 -170 -333 -13
-30 -87 -188 -162 -350 -76 -162 -153 -329 -172 -370 -34 -73 -91 -194 -138
-295 -13 -27 -48 -102 -77 -165 -30 -63 -78 -168 -108 -232 -30 -65 -57 -118
-60 -118 -3 0 -30 53 -60 118 -30 64 -85 182 -122 260 -37 79 -68 145 -68 147
0 19 -115 236 -135 255 l-27 25 -246 3 c-279 3 -301 -2 -335 -68 -24 -47 -18
-87 33 -195 92 -195 121 -257 210 -450 51 -110 117 -251 146 -314 30 -62 54
-114 54 -116 0 -2 32 -69 70 -149 39 -81 70 -148 70 -150 0 -2 24 -55 54 -117
29 -63 64 -136 76 -164 73 -162 134 -283 152 -302 25 -26 56 -34 142 -35 105
-2 102 -5 243 302 14 30 45 96 68 145 23 50 57 122 75 160 18 39 48 104 68
145 19 41 52 111 72 155 21 44 83 177 138 295 55 118 122 262 150 320 27 58
63 134 79 170 17 36 81 173 143 305 62 132 125 267 140 300 15 33 48 103 73
155 69 147 117 249 147 315 15 33 44 95 64 137 46 99 48 144 5 192 -20 23 -43
38 -67 42 -49 9 -410 11 -463 2z"/>
</g>
</svg>
